<svg width="30" height="30" viewBox="0 0 30 30" fill="none" xmlns="http://www.w3.org/2000/svg">
<circle cx="15" cy="15" r="15" fill="#0A1745"/>
<g clip-path="url(#clip0)">
<path d="M14.0805 7.20559C13.4981 7.51906 13.0996 7.95792 12.8698 8.47514C12.6552 8.96102 12.5633 9.66632 12.5633 10.6224V10.9515H11.0767V14.0392H12.5633V22.2678H16.1495V14.0392H18.1571V10.9515H16.1648V10.6851C16.1648 10.0895 16.2874 9.94845 16.3027 9.93277C16.3793 9.8544 16.5633 9.80738 16.8085 9.80738C17.161 9.80738 17.5441 9.8544 17.9426 9.94845L18.4023 10.0582L18.9387 7.26828L18.5556 7.14289C16.977 6.62567 15.1839 6.59432 14.0805 7.20559Z" fill="white"/>
</g>
<defs>
<clipPath id="clip0">
<rect x="11" y="6.67285" width="8" height="15.6735" fill="white"/>
</clipPath>
</defs>
</svg>
