<svg width="24" height="25" viewBox="0 0 24 25" fill="none" xmlns="http://www.w3.org/2000/svg">
<g clip-path="url(#clip0)">
<path d="M11.0805 5.20608C10.4981 5.51955 10.0996 5.9584 9.86976 6.47563C9.6552 6.96151 9.56325 7.66681 9.56325 8.62289V8.95204H8.07666V12.0397H9.56325V20.2683H13.1495V12.0397H15.1571V8.95204H13.1648V8.68559C13.1648 8.09 13.2874 7.94893 13.3027 7.93326C13.3793 7.85489 13.5633 7.80787 13.8085 7.80787C14.161 7.80787 14.5441 7.85489 14.9426 7.94893L15.4023 8.05865L15.9387 5.26877L15.5556 5.14338C13.977 4.62616 12.1839 4.59481 11.0805 5.20608Z" fill="white"/>
</g>
<defs>
<clipPath id="clip0">
<rect x="8" y="4.67334" width="8" height="15.6735" fill="white"/>
</clipPath>
</defs>
</svg>
