<svg width="17" height="16" viewBox="0 0 17 16" fill="none" xmlns="http://www.w3.org/2000/svg">
<g clip-path="url(#clip0)">
<path d="M11.2415 16H4.99337C2.26767 16 0.045166 13.7974 0.045166 11.0961V4.9039C0.045166 2.2026 2.26767 0 4.99337 0H11.2625C13.9672 0 16.1897 2.2026 16.1897 4.9039V11.1169C16.1897 13.7974 13.9672 16 11.2415 16ZM4.99337 1.20519C2.93861 1.20519 1.26125 2.86753 1.26125 4.9039V11.1169C1.26125 13.1532 2.93861 14.8156 4.99337 14.8156H11.2625C13.3173 14.8156 14.9946 13.1532 14.9946 11.1169V4.9039C14.9946 2.86753 13.3173 1.20519 11.2625 1.20519H4.99337Z" fill="#0A1745"/>
<path d="M8.11755 12.0521C5.87409 12.0521 4.02899 10.2443 4.02899 8.00019C4.02899 5.77681 5.87409 3.94824 8.11755 3.94824C10.382 3.94824 12.2061 5.77681 12.2061 8.00019C12.2061 10.2443 10.382 12.0521 8.11755 12.0521ZM8.11755 5.17422C6.54503 5.17422 5.26604 6.44175 5.26604 8.00019C5.26604 9.55863 6.54503 10.8262 8.11755 10.8262C9.69008 10.8262 10.9691 9.55863 10.9691 8.00019C10.9691 6.44175 9.69008 5.17422 8.11755 5.17422Z" fill="#0A1745"/>
<path d="M12.6463 4.57163C13.2369 4.57163 13.7157 4.09717 13.7157 3.51189C13.7157 2.92661 13.2369 2.45215 12.6463 2.45215C12.0558 2.45215 11.577 2.92661 11.577 3.51189C11.577 4.09717 12.0558 4.57163 12.6463 4.57163Z" fill="#0A1745"/>
</g>
<defs>
<clipPath id="clip0">
<rect x="0.045166" width="16.1446" height="16" fill="white"/>
</clipPath>
</defs>
</svg>
