<svg width="30" height="30" viewBox="0 0 30 30" fill="none" xmlns="http://www.w3.org/2000/svg">
<circle cx="15" cy="15" r="15" fill="#0A1745"/>
<g clip-path="url(#clip0)">
<path d="M18.0961 22.7549H11.9039C9.2026 22.7549 7 20.5523 7 17.851V11.6588C7 8.95748 9.2026 6.75488 11.9039 6.75488H18.1169C20.7974 6.75488 23 8.95748 23 11.6588V17.8718C23 20.5523 20.7974 22.7549 18.0961 22.7549ZM11.9039 7.96008C9.86753 7.96008 8.20519 9.62242 8.20519 11.6588V17.8718C8.20519 19.9081 9.86753 21.5705 11.9039 21.5705H18.1169C20.1532 21.5705 21.8156 19.9081 21.8156 17.8718V11.6588C21.8156 9.62242 20.1532 7.96008 18.1169 7.96008H11.9039Z" fill="white"/>
<path d="M15.0002 18.807C12.7768 18.807 10.9482 16.9992 10.9482 14.7551C10.9482 12.5317 12.7768 10.7031 15.0002 10.7031C17.2443 10.7031 19.0521 12.5317 19.0521 14.7551C19.0521 16.9992 17.2443 18.807 15.0002 18.807ZM15.0002 11.9291C13.4417 11.9291 12.1742 13.1966 12.1742 14.7551C12.1742 16.3135 13.4417 17.581 15.0002 17.581C16.5586 17.581 17.8262 16.3135 17.8262 14.7551C17.8262 13.1966 16.5586 11.9291 15.0002 11.9291Z" fill="white"/>
<path d="M19.4882 11.3265C20.0735 11.3265 20.5479 10.852 20.5479 10.2668C20.5479 9.68149 20.0735 9.20703 19.4882 9.20703C18.9029 9.20703 18.4285 9.68149 18.4285 10.2668C18.4285 10.852 18.9029 11.3265 19.4882 11.3265Z" fill="white"/>
</g>
<defs>
<clipPath id="clip0">
<rect x="7" y="6.75488" width="16" height="16" fill="white"/>
</clipPath>
</defs>
</svg>
