<svg width="16" height="17" viewBox="0 0 16 17" fill="none" xmlns="http://www.w3.org/2000/svg">
<path d="M11.0961 16.7549H4.9039C2.2026 16.7549 0 14.5523 0 11.851V5.65878C0 2.95748 2.2026 0.754883 4.9039 0.754883H11.1169C13.7974 0.754883 16 2.95748 16 5.65878V11.8718C16 14.5523 13.7974 16.7549 11.0961 16.7549ZM4.9039 1.96008C2.86753 1.96008 1.20519 3.62242 1.20519 5.65878V11.8718C1.20519 13.9081 2.86753 15.5705 4.9039 15.5705H11.1169C13.1532 15.5705 14.8156 13.9081 14.8156 11.8718V5.65878C14.8156 3.62242 13.1532 1.96008 11.1169 1.96008H4.9039Z" fill="white"/>
<path d="M8.00019 12.807C5.77681 12.807 3.94824 10.9992 3.94824 8.75507C3.94824 6.5317 5.77681 4.70312 8.00019 4.70312C10.2443 4.70312 12.0521 6.5317 12.0521 8.75507C12.0521 10.9992 10.2443 12.807 8.00019 12.807ZM8.00019 5.9291C6.44175 5.9291 5.17422 7.19663 5.17422 8.75507C5.17422 10.3135 6.44175 11.581 8.00019 11.581C9.55863 11.581 10.8262 10.3135 10.8262 8.75507C10.8262 7.19663 9.55863 5.9291 8.00019 5.9291Z" fill="white"/>
<path d="M12.4882 5.32651C13.0735 5.32651 13.5479 4.85205 13.5479 4.26677C13.5479 3.68149 13.0735 3.20703 12.4882 3.20703C11.9029 3.20703 11.4285 3.68149 11.4285 4.26677C11.4285 4.85205 11.9029 5.32651 12.4882 5.32651Z" fill="white"/>
</svg>
