<svg width="25" height="24" viewBox="0 0 25 24" fill="none" xmlns="http://www.w3.org/2000/svg">
<path d="M21.1344 6.6659C21.0663 6.56979 20.9303 6.53776 20.7942 6.53776C20.7261 6.53776 20.6241 6.56979 20.488 6.60183C20.3859 6.63387 20.2499 6.6659 20.0798 6.69794C20.1478 6.56979 20.1818 6.44165 20.2499 6.28146C20.3179 6.05721 20.3859 5.80092 20.454 5.54462C20.488 5.41648 20.42 5.28833 20.3179 5.19222C20.2158 5.09611 20.0458 5.09611 19.9437 5.16018C19.3654 5.48055 18.9571 5.64073 18.5829 5.76888C18.2768 5.86499 18.0046 5.92906 17.7324 5.9611C17.3923 5.64073 17.018 5.41648 16.5758 5.25629C16.0995 5.09611 15.6233 5 15.113 5C14.5006 5 13.8883 5.12815 13.2419 5.38444C12.9357 5.51259 12.6636 5.67277 12.4254 5.89703C12.0512 6.21739 11.7451 6.63387 11.5069 7.08238C11.2688 7.53089 11.1327 8.04348 11.1327 8.55606C11.1327 8.62014 11.1327 8.65217 11.1327 8.71625H11.0987C10.4523 8.55606 9.43175 8.2357 8.44519 7.81922C8.03696 7.65904 7.45863 7.30664 6.91433 6.85812C6.37002 6.40961 5.82571 5.86499 5.4515 5.32037C5.38346 5.22426 5.2814 5.16018 5.17935 5.16018C5.07729 5.16018 4.97523 5.19222 4.87317 5.25629C4.70308 5.41648 4.567 5.57666 4.43092 5.70481C4.26083 5.92906 4.12475 6.15332 4.02269 6.40961C3.95465 6.63387 3.88661 6.89016 3.85259 7.21053C3.81858 7.40275 3.81858 7.627 3.81858 7.85126C3.81858 8.33181 3.88661 8.87643 4.09073 9.32494C3.92063 9.35698 3.78456 9.48513 3.78456 9.64531C3.78456 9.77346 3.78456 9.9016 3.78456 10.0297C3.78456 11.119 4.15877 12.016 4.73709 12.6568C4.80513 12.7208 4.83915 12.7849 4.90719 12.8169C4.90719 12.849 4.90719 12.849 4.90719 12.881C4.90719 13.2975 5.00925 13.6819 5.21336 14.0343C5.51954 14.5469 5.96179 14.9954 6.5061 15.2838C6.71021 15.4119 6.91433 15.508 7.11844 15.5721C6.19992 15.8284 5.48552 15.8924 4.87317 15.8924C4.60102 15.8924 4.36288 15.8924 4.12475 15.8604C3.88661 15.8604 3.6825 15.8284 3.5124 15.8284C3.47838 15.8284 3.41034 15.8284 3.37633 15.8284C3.27427 15.8284 3.17221 15.8924 3.10417 15.9565C3.03613 16.0847 3.03613 16.1808 3.03613 16.2769C3.13819 16.6934 3.41034 17.0458 3.75054 17.3661C4.29484 17.8467 5.04327 18.2632 5.96179 18.5515C6.88031 18.8398 7.9349 19 9.09156 19C10.7585 19 12.5955 18.6476 14.3645 17.7506C15.9634 16.9176 17.2902 15.5721 18.1067 14.0664C18.3788 13.5538 18.685 12.881 18.9231 12.1442C19.1613 11.4394 19.3314 10.6705 19.3314 9.96567C19.3314 9.74142 19.2973 9.48513 19.2633 9.29291C19.4674 9.16476 19.6375 9.03661 19.8076 8.87643C20.1478 8.62014 20.3859 8.33181 20.5901 8.01144C20.7942 7.69108 20.9643 7.37071 21.1344 6.95423C21.2364 6.89016 21.2024 6.76201 21.1344 6.6659Z" fill="#0A1745"/>
</svg>
