<svg width="30" height="30" viewBox="0 0 30 30" fill="none" xmlns="http://www.w3.org/2000/svg">
<circle cx="15" cy="15" r="15" fill="#0A1745"/>
<path d="M24.9362 10.4208C24.8687 10.3247 24.7339 10.2926 24.599 10.2926C24.5316 10.2926 24.4304 10.3247 24.2956 10.3567C24.1944 10.3887 24.0596 10.4208 23.891 10.4528C23.9584 10.3247 23.9922 10.1965 24.0596 10.0363C24.127 9.81209 24.1944 9.5558 24.2619 9.29951C24.2956 9.17136 24.2282 9.04321 24.127 8.9471C24.0259 8.85099 23.8573 8.85099 23.7562 8.91507C23.183 9.23543 22.7784 9.39562 22.4076 9.52376C22.1041 9.61987 21.8344 9.68394 21.5647 9.71598C21.2276 9.39562 20.8567 9.17136 20.4184 9.01118C19.9464 8.85099 19.4744 8.75488 18.9687 8.75488C18.3618 8.75488 17.755 8.88303 17.1144 9.13932C16.8109 9.26747 16.5412 9.42765 16.3052 9.65191C15.9344 9.97227 15.6309 10.3888 15.3949 10.8373C15.1589 11.2858 15.0241 11.7984 15.0241 12.3109C15.0241 12.375 15.0241 12.4071 15.0241 12.4711H14.9904C14.3498 12.3109 13.3383 11.9906 12.3606 11.5741C11.956 11.4139 11.3829 11.0615 10.8435 10.613C10.304 10.1645 9.7646 9.61987 9.39374 9.07525C9.32631 8.97914 9.22516 8.91507 9.12402 8.91507C9.02288 8.91507 8.92173 8.9471 8.82059 9.01118C8.65202 9.17136 8.51716 9.33154 8.3823 9.45969C8.21373 9.68394 8.07887 9.9082 7.97772 10.1645C7.91029 10.3888 7.84286 10.645 7.80915 10.9654C7.77544 11.1576 7.77544 11.3819 7.77544 11.6061C7.77544 12.0867 7.84286 12.6313 8.04515 13.0798C7.87658 13.1119 7.74172 13.24 7.74172 13.4002C7.74172 13.5283 7.74172 13.6565 7.74172 13.7846C7.74172 14.8739 8.11258 15.7709 8.68573 16.4116C8.75316 16.4757 8.78687 16.5398 8.8543 16.5718C8.8543 16.6039 8.8543 16.6039 8.8543 16.6359C8.8543 17.0524 8.95545 17.4368 9.15773 17.7892C9.46117 18.3018 9.89946 18.7503 10.4389 19.0386C10.6412 19.1668 10.8435 19.2629 11.0458 19.327C10.1355 19.5833 9.42745 19.6473 8.82059 19.6473C8.55087 19.6473 8.31487 19.6473 8.07887 19.6153C7.84286 19.6153 7.64058 19.5833 7.472 19.5833C7.43829 19.5833 7.37086 19.5833 7.33715 19.5833C7.236 19.5833 7.13486 19.6473 7.06743 19.7114C7 19.8396 7 19.9357 7 20.0318C7.10114 20.4482 7.37086 20.8006 7.70801 21.121C8.24744 21.6016 8.98916 22.018 9.89946 22.3064C10.8097 22.5947 11.8549 22.7549 13.0012 22.7549C14.6532 22.7549 16.4738 22.4025 18.227 21.5055C19.8115 20.6725 21.1264 19.327 21.9356 17.8212C22.2053 17.3087 22.5087 16.6359 22.7447 15.899C22.9807 15.1942 23.1493 14.4254 23.1493 13.7206C23.1493 13.4963 23.1156 13.24 23.0819 13.0478C23.2841 12.9196 23.4527 12.7915 23.6213 12.6313C23.9584 12.375 24.1944 12.0867 24.3967 11.7663C24.599 11.446 24.7676 11.1256 24.9362 10.7091C25.0373 10.645 25.0036 10.5169 24.9362 10.4208Z" fill="white"/>
</svg>
