<svg width="18" height="15" viewBox="0 0 18 15" fill="none" xmlns="http://www.w3.org/2000/svg">
<path d="M17.9362 2.42079C17.8687 2.32468 17.7339 2.29264 17.599 2.29264C17.5316 2.29264 17.4304 2.32468 17.2956 2.35671C17.1944 2.38875 17.0596 2.42079 16.891 2.45282C16.9584 2.32468 16.9922 2.19653 17.0596 2.03635C17.127 1.81209 17.1944 1.5558 17.2619 1.29951C17.2956 1.17136 17.2282 1.04321 17.127 0.947103C17.0259 0.850993 16.8573 0.850993 16.7562 0.915066C16.183 1.23543 15.7784 1.39562 15.4076 1.52376C15.1041 1.61987 14.8344 1.68394 14.5647 1.71598C14.2276 1.39562 13.8567 1.17136 13.4184 1.01118C12.9464 0.850993 12.4744 0.754883 11.9687 0.754883C11.3618 0.754883 10.755 0.883029 10.1144 1.13932C9.81095 1.26747 9.54123 1.42765 9.30523 1.65191C8.93437 1.97227 8.63094 2.38875 8.39493 2.83726C8.15893 3.28578 8.02407 3.79836 8.02407 4.31095C8.02407 4.37502 8.02407 4.40706 8.02407 4.47113H7.99036C7.34978 4.31095 6.33834 3.99058 5.36062 3.5741C4.95605 3.41392 4.3829 3.06152 3.84346 2.61301C3.30403 2.16449 2.7646 1.61987 2.39374 1.07525C2.32631 0.979139 2.22516 0.915066 2.12402 0.915066C2.02288 0.915066 1.92173 0.947103 1.82059 1.01118C1.65202 1.17136 1.51716 1.33154 1.3823 1.45969C1.21373 1.68394 1.07887 1.9082 0.977723 2.16449C0.910294 2.38875 0.842865 2.64504 0.80915 2.96541C0.775436 3.15763 0.775436 3.38188 0.775436 3.60614C0.775436 4.08669 0.842865 4.63131 1.04515 5.07983C0.876579 5.11186 0.741721 5.24001 0.741721 5.40019C0.741721 5.52834 0.741721 5.65648 0.741721 5.78463C0.741721 6.87388 1.11258 7.7709 1.68573 8.41163C1.75316 8.47571 1.78687 8.53978 1.8543 8.57182C1.8543 8.60385 1.8543 8.60385 1.8543 8.63589C1.8543 9.05237 1.95545 9.4368 2.15773 9.78921C2.46117 10.3018 2.89946 10.7503 3.43889 11.0386C3.64118 11.1668 3.84346 11.2629 4.04575 11.327C3.13546 11.5833 2.42745 11.6473 1.82059 11.6473C1.55087 11.6473 1.31487 11.6473 1.07887 11.6153C0.842865 11.6153 0.640577 11.5833 0.472004 11.5833C0.43829 11.5833 0.370861 11.5833 0.337146 11.5833C0.236002 11.5833 0.134858 11.6473 0.0674292 11.7114C0 11.8396 0 11.9357 0 12.0318C0.101144 12.4482 0.37086 12.8006 0.708006 13.121C1.24744 13.6016 1.98916 14.018 2.89946 14.3064C3.80975 14.5947 4.8549 14.7549 6.0012 14.7549C7.65321 14.7549 9.4738 14.4025 11.227 13.5055C12.8115 12.6725 14.1264 11.327 14.9356 9.82124C15.2053 9.30866 15.5087 8.63589 15.7447 7.89905C15.9807 7.19424 16.1493 6.42536 16.1493 5.72056C16.1493 5.4963 16.1156 5.24001 16.0819 5.04779C16.2841 4.91964 16.4527 4.7915 16.6213 4.63131C16.9584 4.37502 17.1944 4.08669 17.3967 3.76632C17.599 3.44596 17.7676 3.12559 17.9362 2.70912C18.0373 2.64504 18.0036 2.5169 17.9362 2.42079Z" fill="white"/>
</svg>
