<svg width="1440" height="72" viewBox="0 0 1440 72" fill="none" xmlns="http://www.w3.org/2000/svg">
<rect width="1440" height="80" fill="#5C0A2C"/>
<mask id="mask0" mask-type="alpha" maskUnits="userSpaceOnUse" x="0" y="0" width="1440" height="80">
<rect width="1440" height="80" fill="#0A1745"/>
</mask>
<g mask="url(#mask0)">
<path fill-rule="evenodd" clip-rule="evenodd" d="M1493.16 -322.172V-335.2L1393.68 -308.553V-333.534L1168.55 -273.273V-248.287L1364.86 -300.833L1068.1 -221.341V-165.098L1493.16 -278.957V-318.771L1572.25 -340.002V-343.333L1493.16 -322.172ZM761.821 -142.561L1042.22 -217.716V-254.754L761.821 -179.698V-142.561ZM1145.32 -14.9009L563.451 140.994V135.278L521.21 146.593V143.262L563.451 131.946V76.1438L507.881 91.0319V103.186L240.712 174.813V162.612L122.978 194.155V186.977L-131.326 255.161V218.025L122.978 149.93V117.138L704.851 -38.6582V26.1176L1145.32 -91.8193V-14.9009ZM1191.49 -162.061L871.688 -76.4216V-90.2375L1191.49 -175.975V-162.061ZM673.319 -173.23L851.694 -220.949V-230.258L673.319 -182.539V-173.23ZM1152.58 -122.278L1252.94 -149.224V-154.417L1152.58 -127.57V-122.278ZM-125.838 155.314L-452.204 242.717V217.731L-125.838 130.23V155.314ZM248.199 -110.934V-63.1537L257.863 -65.7407V-40.7545L248.199 -38.1674V-34.0156L-288.334 109.731V114.552L-351.451 131.504V124.743L-333.674 119.968V44.8625L248.199 -110.934ZM1647.71 -285.326L1431.31 -227.318V-247.209L1647.71 -305.119V-285.326ZM-292.646 147.671L-230.901 131.112V116.022L-292.646 132.582V147.671ZM1168.16 -295.516L1106.42 -278.957V-294.144L1168.16 -310.606V-295.516ZM-376.444 243.991L-575.792 297.393V294.061L-376.444 240.659V243.991ZM699.879 -211.151L428.593 -138.544V-141.875L699.879 -214.482V-211.151ZM1524.71 -227.123L1796 -299.828V-303.159L1524.71 -230.454V-227.123ZM610.693 225.177L274.624 315.128V311.796L610.693 221.748V225.177ZM5.78711 -70.6401L205.135 -124.042V-127.374L5.78711 -73.9716V-70.6401ZM718.011 222.434L490.044 283.478V269.662L718.011 208.618V222.434ZM332.839 -128.256L474.265 -166.176V-181.266L332.839 -143.443V-128.256ZM353.323 -164.02L305.103 -151.086V-162.942L353.323 -175.778V-164.02ZM-163.276 304.448L-114.958 291.514V279.658L-163.276 292.592V304.448ZM467.013 237.327L325.881 275.15V240.578L225.815 267.409V252.319L367.24 214.399V229.489L346.586 235.027L467.013 202.837V237.327ZM516.115 -82.5945L596.58 -104.151V-112.774L516.115 -91.2172V-82.5945ZM1441.8 -84.3583L1361.33 -62.8015V-71.4242L1441.8 -92.981V-84.3583ZM1449.97 28.9375L868.1 184.832V107.816L1449.97 -47.981V28.9375Z" fill="#E31018"/>
</g>
</svg>
